<svg viewBox="0 0 24 24" fill="none" xmlns="http://www.w3.org/2000/svg" width="20" height="20">
	<path d="M22.296 9.944h-.846V9.9H12v4.2h5.934A6.297 6.297 0 015.7 12 6.3 6.3 0 0112 5.7c1.606 0 3.067.606 4.18 1.595l2.97-2.97A10.452 10.452 0 0012 1.5C6.201 1.5 1.5 6.201 1.5 12S6.201 22.5 12 22.5 22.5 17.799 22.5 12c0-.704-.072-1.391-.204-2.056z" fill="#FFC107">
	</path>
	<path d="M2.711 7.113l3.45 2.53A6.297 6.297 0 0112 5.7c1.605 0 3.067.606 4.179 1.595l2.97-2.97A10.452 10.452 0 0012 1.5c-4.033 0-7.53 2.277-9.289 5.613z" fill="#FF3D00">
	</path>
	<path d="M12 22.5a10.45 10.45 0 007.04-2.726l-3.25-2.75A6.253 6.253 0 0112 18.3a6.297 6.297 0 01-5.924-4.172l-3.424 2.638c1.738 3.4 5.267 5.734 9.347 5.734z" fill="#4CAF50">
	</path>
	<path d="M22.299 9.901H12v4.2h5.934a6.32 6.32 0 01-2.146 2.925h.002l3.25 2.749c-.23.209 3.46-2.524 3.46-7.774 0-.704-.07-1.434-.201-2.1z" fill="#1976D2">
	</path>
</svg>
