<svg viewBox="0 0 24 24" fill="none" xmlns="http://www.w3.org/2000/svg" width="20" height="20">
	<path d="M15.66 1h-.148c-1.11.148-2.268.81-2.9 1.555-.68.8-1.243 1.825-1.144 3.285 1.482.117 2.399-.655 3.068-1.451.682-.802 1.244-1.908 1.125-3.389zM20 16.456v-.041c-1.45-.694-2.611-1.87-2.773-3.882-.181-2.214.88-3.51 2.223-4.37-.696-1.096-1.822-1.807-3.41-2.048-1.32-.2-2.321.226-3.343.597-.35.129-.693.31-1.04.32-.51.016-1.05-.28-1.481-.447-.455-.173-.974-.348-1.482-.428-1.186-.182-2.251.227-3.026.706C4.2 7.765 3.096 9.626 3 11.915v.939c.227 3.198 1.448 5.697 3.027 7.632.536.655 1.271 1.382 2.182 1.514h.423c.53-.075.97-.246 1.407-.416.584-.227 1.16-.45 1.937-.438.638.011 1.164.217 1.686.422.528.207 1.05.411 1.68.411 1.449 0 2.26-1.234 2.922-2.152.725-1.011 1.32-2.1 1.736-3.37z" fill="#000">
	</path>
</svg>
